<svg width="16" height="16" viewBox="0 0 16 16" fill="none" xmlns="http://www.w3.org/2000/svg">
<path fill-rule="evenodd" clip-rule="evenodd" d="M1.99313 3.24897C2.20402 2.89912 3.36663 1.62914 4.1951 1.66748C4.44296 1.6887 4.66206 1.83795 4.84008 2.01184H4.84077C5.24884 2.41167 6.41967 3.92059 6.4854 4.23826C6.64767 5.01736 5.71854 5.46648 6.00269 6.25175C6.72709 8.02425 7.97529 9.27233 9.74864 9.99598C10.5333 10.2808 10.9825 9.35243 11.7616 9.51401C12.0793 9.58041 13.5891 10.7504 13.9882 11.1592V11.1592C14.1615 11.3365 14.3121 11.5563 14.3326 11.8041C14.3635 12.677 13.0146 13.8552 12.7517 14.0059C12.1314 14.4502 11.3221 14.442 10.3354 13.9833C7.58227 12.8379 3.18244 8.52129 2.01573 5.66434C1.56931 4.68327 1.53918 3.86856 1.99313 3.24897Z" stroke="white" stroke-linecap="round" stroke-linejoin="round"/>
<path d="M9.70996 1.83325C12.178 2.10725 14.1266 4.05392 14.404 6.52125" stroke="white" stroke-linecap="round" stroke-linejoin="round"/>
<path d="M9.70996 4.19531C10.89 4.42531 11.812 5.34731 12.042 6.52731" stroke="white" stroke-linecap="round" stroke-linejoin="round"/>
</svg>
